<svg xmlns="http://www.w3.org/2000/svg" version="1.1" xmlns:xlink="http://www.w3.org/1999/xlink" xmlns:svgjs="http://svgjs.dev/svgjs" width="2000" height="1252" viewBox="0 0 2000 1252"><g transform="matrix(1,0,0,1,-1.2121212121212466,-2.01935483870966)"><svg viewBox="0 0 396 248" data-background-color="#ffffff" preserveAspectRatio="xMidYMid meet" height="1252" width="2000" xmlns="http://www.w3.org/2000/svg" xmlns:xlink="http://www.w3.org/1999/xlink"><g id="tight-bounds" transform="matrix(1,0,0,1,0.2400000000000091,0.4000000000000057)"><svg viewBox="0 0 395.52 247.2" height="247.2" width="395.52"><g><svg></svg></g><g><svg viewBox="0 0 395.52 247.2" height="247.2" width="395.52"><g transform="matrix(1,0,0,1,75.54432,98.51173724340175)"><svg viewBox="0 0 244.43135999999998 50.17652551319648" height="50.17652551319648" width="244.43135999999998"><g><svg viewBox="0 0 244.43135999999998 50.17652551319648" height="50.17652551319648" width="244.43135999999998"><g><svg viewBox="0 0 244.43135999999998 50.17652551319648" height="50.17652551319648" width="244.43135999999998"><g id="textblocktransform"><svg viewBox="0 0 244.43135999999998 50.17652551319648" height="50.17652551319648" width="244.43135999999998" id="textblock"><g><svg viewBox="0 0 244.43135999999998 50.17652551319648" height="50.17652551319648" width="244.43135999999998"><g transform="matrix(1,0,0,1,0,0)"><svg width="244.43135999999998" viewBox="1.7999999999999998 -28 136.39 28" height="50.17652551319648" data-palette-color="#eb5e28"><path d="M18-16Q18.2-15.2 18.2-14L18.2-14Q18.2-12.85 18-12L18-12Q18.2-11.2 18.2-10L18.2-10Q18.2-8.85 18-8L18-8Q18.2-7.2 18.2-6L18.2-6Q18.2-4.85 18-4L18-4 16-4Q16.2-3.2 16.2-2L16.2-2Q16.2-0.85 16 0L16 0 6 0Q5.8-0.85 5.8-2L5.8-2Q5.8-3.2 6-4L6-4 4-4Q3.8-4.85 3.8-6L3.8-6Q3.8-7.2 4-8L4-8 2-8Q1.8-8.85 1.8-10L1.8-10Q1.8-11.2 2-12L2-12Q1.8-12.85 1.8-14L1.8-14Q1.8-15.2 2-16L2-16Q1.8-16.85 1.8-18L1.8-18Q1.8-19.2 2-20L2-20 4-20Q3.8-20.85 3.8-22L3.8-22Q3.8-23.2 4-24L4-24 6-24Q5.8-24.85 5.8-26L5.8-26Q5.8-27.2 6-28L6-28 16-28Q16.2-27.2 16.2-26L16.2-26Q16.2-24.85 16-24L16-24 18-24Q18.2-23.2 18.2-22L18.2-22Q18.2-20.85 18-20L18-20 14-20Q13.8-20.85 13.8-22L13.8-22Q13.8-23.2 14-24L14-24 8-24Q8.2-23.2 8.2-22L8.2-22Q8.2-20.85 8-20L8-20 6-20Q6.2-19.2 6.2-18L6.2-18Q6.2-16.85 6-16L6-16Q6.2-15.2 6.2-14L6.2-14Q6.2-12.85 6-12L6-12Q6.2-11.2 6.2-10L6.2-10Q6.2-8.85 6-8L6-8 8-8Q8.2-7.2 8.2-6L8.2-6Q8.2-4.85 8-4L8-4 14-4Q13.8-4.85 13.8-6L13.8-6Q13.8-7.2 14-8L14-8Q13.8-8.85 13.8-10L13.8-10Q13.8-11.2 14-12L14-12 11-12Q10.8-12.85 10.8-14L10.8-14Q10.8-15.2 11-16L11-16 18-16ZM38.2-6Q38.2-4.85 38-4L38-4Q38.2-3.2 38.2-2L38.2-2Q38.2-0.85 38 0L38 0 34 0Q33.8-0.85 33.8-2L33.8-2Q33.8-3.2 34-4L34-4Q33.8-4.85 33.8-6L33.8-6Q33.8-7.2 34-8L34-8 26-8Q26.2-7.2 26.2-6L26.2-6Q26.2-4.85 26-4L26-4Q26.2-3.2 26.2-2L26.2-2Q26.2-0.85 26 0L26 0 22 0Q21.8-0.85 21.8-2L21.8-2Q21.8-3.2 22-4L22-4Q21.8-4.85 21.8-6L21.8-6Q21.8-7.2 22-8L22-8 23.5-8Q23.3-8.85 23.3-10L23.3-10Q23.3-11.2 23.5-12L23.5-12Q23.3-12.85 23.3-14L23.3-14Q23.3-15.2 23.5-16L23.5-16 24.5-16Q24.3-16.85 24.3-18L24.3-18Q24.3-19.2 24.5-20L24.5-20 26-20Q25.8-20.85 25.8-22L25.8-22Q25.8-23.2 26-24L26-24 27-24Q26.8-24.85 26.8-26L26.8-26Q26.8-27.2 27-28L27-28 33-28Q33.2-27.2 33.2-26L33.2-26Q33.2-24.85 33-24L33-24 34-24Q34.2-23.2 34.2-22L34.2-22Q34.2-20.85 34-20L34-20 35.5-20Q35.7-19.2 35.7-18L35.7-18Q35.7-16.85 35.5-16L35.5-16 36.5-16Q36.7-15.2 36.7-14L36.7-14Q36.7-12.85 36.5-12L36.5-12Q36.7-11.2 36.7-10L36.7-10Q36.7-8.85 36.5-8L36.5-8 38-8Q38.2-7.2 38.2-6L38.2-6ZM32.5-12Q32.3-12.85 32.3-14L32.3-14Q32.3-15.2 32.5-16L32.5-16 31.5-16Q31.3-16.85 31.3-18L31.3-18Q31.3-19.2 31.5-20L31.5-20 28.5-20Q28.7-19.2 28.7-18L28.7-18Q28.7-16.85 28.5-16L28.5-16 27.5-16Q27.7-15.2 27.7-14L27.7-14Q27.7-12.85 27.5-12L27.5-12 32.5-12ZM58-24Q58.2-23.2 58.2-22L58.2-22Q58.2-20.85 58-20L58-20Q58.2-19.2 58.2-18L58.2-18Q58.2-16.85 58-16L58-16Q58.2-15.2 58.2-14L58.2-14Q58.2-12.85 58-12L58-12Q58.2-11.2 58.2-10L58.2-10Q58.2-8.85 58-8L58-8Q58.2-7.2 58.2-6L58.2-6Q58.2-4.85 58-4L58-4Q58.2-3.2 58.2-2L58.2-2Q58.2-0.85 58 0L58 0 54 0Q53.8-0.85 53.8-2L53.8-2Q53.8-3.2 54-4L54-4Q53.8-4.85 53.8-6L53.8-6Q53.8-7.2 54-8L54-8Q53.8-8.85 53.8-10L53.8-10Q53.8-11.2 54-12L54-12Q53.8-12.85 53.8-14L53.8-14Q53.8-15.2 54-16L54-16Q53.8-16.85 53.8-18L53.8-18Q53.8-19.2 54-20L54-20 52.5-20Q52.7-19.2 52.7-18L52.7-18Q52.7-16.85 52.5-16L52.5-16Q52.7-15.2 52.7-14L52.7-14Q52.7-12.85 52.5-12L52.5-12 51.5-12Q51.7-11.2 51.7-10L51.7-10Q51.7-8.85 51.5-8L51.5-8Q51.7-7.2 51.7-6L51.7-6Q51.7-4.85 51.5-4L51.5-4 48.5-4Q48.3-4.85 48.3-6L48.3-6Q48.3-7.2 48.5-8L48.5-8Q48.3-8.85 48.3-10L48.3-10Q48.3-11.2 48.5-12L48.5-12 47.5-12Q47.3-12.85 47.3-14L47.3-14Q47.3-15.2 47.5-16L47.5-16Q47.3-16.85 47.3-18L47.3-18Q47.3-19.2 47.5-20L47.5-20 46-20Q46.2-19.2 46.2-18L46.2-18Q46.2-16.85 46-16L46-16Q46.2-15.2 46.2-14L46.2-14Q46.2-12.85 46-12L46-12Q46.2-11.2 46.2-10L46.2-10Q46.2-8.85 46-8L46-8Q46.2-7.2 46.2-6L46.2-6Q46.2-4.85 46-4L46-4Q46.2-3.2 46.2-2L46.2-2Q46.2-0.85 46 0L46 0 42 0Q41.8-0.85 41.8-2L41.8-2Q41.8-3.2 42-4L42-4Q41.8-4.85 41.8-6L41.8-6Q41.8-7.2 42-8L42-8Q41.8-8.85 41.8-10L41.8-10Q41.8-11.2 42-12L42-12Q41.8-12.85 41.8-14L41.8-14Q41.8-15.2 42-16L42-16Q41.8-16.85 41.8-18L41.8-18Q41.8-19.2 42-20L42-20Q41.8-20.85 41.8-22L41.8-22Q41.8-23.2 42-24L42-24Q41.8-24.85 41.8-26L41.8-26Q41.8-27.2 42-28L42-28 47-28Q47.2-27.2 47.2-26L47.2-26Q47.2-24.85 47-24L47-24 48.5-24Q48.7-23.2 48.7-22L48.7-22Q48.7-20.85 48.5-20L48.5-20 49.25-20Q49.45-19.2 49.45-18L49.45-18Q49.45-16.85 49.25-16L49.25-16 50.75-16Q50.55-16.85 50.55-18L50.55-18Q50.55-19.2 50.75-20L50.75-20 51.5-20Q51.3-20.85 51.3-22L51.3-22Q51.3-23.2 51.5-24L51.5-24 53-24Q52.8-24.85 52.8-26L52.8-26Q52.8-27.2 53-28L53-28 58-28Q58.2-27.2 58.2-26L58.2-26Q58.2-24.85 58-24L58-24ZM75.99-12L67.99-12Q68.19-11.2 68.19-10L68.19-10Q68.19-8.85 67.99-8L67.99-8Q68.19-7.2 68.19-6L68.19-6Q68.19-4.85 67.99-4L67.99-4 75.99-4Q76.19-3.2 76.19-2L76.19-2Q76.19-0.85 75.99 0L75.99 0 63.99 0Q63.79-0.85 63.79-2L63.79-2Q63.79-3.2 63.99-4L63.99-4Q63.79-4.85 63.79-6L63.79-6Q63.79-7.2 63.99-8L63.99-8Q63.79-8.85 63.79-10L63.79-10Q63.79-11.2 63.99-12L63.99-12Q63.79-12.85 63.79-14L63.79-14Q63.79-15.2 63.99-16L63.99-16Q63.79-16.85 63.79-18L63.79-18Q63.79-19.2 63.99-20L63.99-20Q63.79-20.85 63.79-22L63.79-22Q63.79-23.2 63.99-24L63.99-24Q63.79-24.85 63.79-26L63.79-26Q63.79-27.2 63.99-28L63.99-28 75.99-28Q76.19-27.2 76.19-26L76.19-26Q76.19-24.85 75.99-24L75.99-24 67.99-24Q68.19-23.2 68.19-22L68.19-22Q68.19-20.85 67.99-20L67.99-20Q68.19-19.2 68.19-18L68.19-18Q68.19-16.85 67.99-16L67.99-16 75.99-16Q76.19-15.2 76.19-14L76.19-14Q76.19-12.85 75.99-12L75.99-12ZM97.99-16Q98.19-15.2 98.19-14L98.19-14Q98.19-12.85 97.99-12L97.99-12Q98.19-11.2 98.19-10L98.19-10Q98.19-8.85 97.99-8L97.99-8 95.99-8Q96.19-7.2 96.19-6L96.19-6Q96.19-4.85 95.99-4L95.99-4 93.99-4Q94.19-3.2 94.19-2L94.19-2Q94.19-0.85 93.99 0L93.99 0 81.99 0Q81.79-0.85 81.79-2L81.79-2Q81.79-3.2 81.99-4L81.99-4Q81.79-4.85 81.79-6L81.79-6Q81.79-7.2 81.99-8L81.99-8Q81.79-8.85 81.79-10L81.79-10Q81.79-11.2 81.99-12L81.99-12Q81.79-12.85 81.79-14L81.79-14Q81.79-15.2 81.99-16L81.99-16Q81.79-16.85 81.79-18L81.79-18Q81.79-19.2 81.99-20L81.99-20Q81.79-20.85 81.79-22L81.79-22Q81.79-23.2 81.99-24L81.99-24Q81.79-24.85 81.79-26L81.79-26Q81.79-27.2 81.99-28L81.99-28 93.99-28Q94.19-27.2 94.19-26L94.19-26Q94.19-24.85 93.99-24L93.99-24 95.99-24Q96.19-23.2 96.19-22L96.19-22Q96.19-20.85 95.99-20L95.99-20 97.99-20Q98.19-19.2 98.19-18L98.19-18Q98.19-16.85 97.99-16L97.99-16ZM93.99-8Q93.79-8.85 93.79-10L93.79-10Q93.79-11.2 93.99-12L93.99-12Q93.79-12.85 93.79-14L93.79-14Q93.79-15.2 93.99-16L93.99-16Q93.79-16.85 93.79-18L93.79-18Q93.79-19.2 93.99-20L93.99-20 91.99-20Q91.79-20.85 91.79-22L91.79-22Q91.79-23.2 91.99-24L91.99-24 85.99-24Q86.19-23.2 86.19-22L86.19-22Q86.19-20.85 85.99-20L85.99-20Q86.19-19.2 86.19-18L86.19-18Q86.19-16.85 85.99-16L85.99-16Q86.19-15.2 86.19-14L86.19-14Q86.19-12.85 85.99-12L85.99-12Q86.19-11.2 86.19-10L86.19-10Q86.19-8.85 85.99-8L85.99-8Q86.19-7.2 86.19-6L86.19-6Q86.19-4.85 85.99-4L85.99-4 91.99-4Q91.79-4.85 91.79-6L91.79-6Q91.79-7.2 91.99-8L91.99-8 93.99-8ZM115.99-12L107.99-12Q108.19-11.2 108.19-10L108.19-10Q108.19-8.85 107.99-8L107.99-8Q108.19-7.2 108.19-6L108.19-6Q108.19-4.85 107.99-4L107.99-4 115.99-4Q116.19-3.2 116.19-2L116.19-2Q116.19-0.85 115.99 0L115.99 0 103.99 0Q103.79-0.85 103.79-2L103.79-2Q103.79-3.2 103.99-4L103.99-4Q103.79-4.85 103.79-6L103.79-6Q103.79-7.2 103.99-8L103.99-8Q103.79-8.85 103.79-10L103.79-10Q103.79-11.2 103.99-12L103.99-12Q103.79-12.85 103.79-14L103.79-14Q103.79-15.2 103.99-16L103.99-16Q103.79-16.85 103.79-18L103.79-18Q103.79-19.2 103.99-20L103.99-20Q103.79-20.85 103.79-22L103.79-22Q103.79-23.2 103.99-24L103.99-24Q103.79-24.85 103.79-26L103.79-26Q103.79-27.2 103.99-28L103.99-28 115.99-28Q116.19-27.2 116.19-26L116.19-26Q116.19-24.85 115.99-24L115.99-24 107.99-24Q108.19-23.2 108.19-22L108.19-22Q108.19-20.85 107.99-20L107.99-20Q108.19-19.2 108.19-18L108.19-18Q108.19-16.85 107.99-16L107.99-16 115.99-16Q116.19-15.2 116.19-14L116.19-14Q116.19-12.85 115.99-12L115.99-12ZM136.49-4L137.99-4Q138.19-3.2 138.19-2L138.19-2Q138.19-0.85 137.99 0L137.99 0 133.99 0Q133.79-0.85 133.79-2L133.79-2Q133.79-3.2 133.99-4L133.99-4 132.49-4Q132.29-4.85 132.29-6L132.29-6Q132.29-7.2 132.49-8L132.49-8 131.49-8Q131.29-8.85 131.29-10L131.29-10Q131.29-11.2 131.49-12L131.49-12 128.49-12Q128.69-11.2 128.69-10L128.69-10Q128.69-8.85 128.49-8L128.49-8 127.49-8Q127.69-7.2 127.69-6L127.69-6Q127.69-4.85 127.49-4L127.49-4 125.99-4Q126.19-3.2 126.19-2L126.19-2Q126.19-0.85 125.99 0L125.99 0 121.99 0Q121.79-0.85 121.79-2L121.79-2Q121.79-3.2 121.99-4L121.99-4 123.49-4Q123.29-4.85 123.29-6L123.29-6Q123.29-7.2 123.49-8L123.49-8 125.49-8Q125.29-8.85 125.29-10L125.29-10Q125.29-11.2 125.49-12L125.49-12 126.99-12Q126.79-12.85 126.79-14L126.79-14Q126.79-15.2 126.99-16L126.99-16 125.49-16Q125.29-16.85 125.29-18L125.29-18Q125.29-19.2 125.49-20L125.49-20 123.49-20Q123.29-20.85 123.29-22L123.29-22Q123.29-23.2 123.49-24L123.49-24 121.99-24Q121.79-24.85 121.79-26L121.79-26Q121.79-27.2 121.99-28L121.99-28 125.99-28Q126.19-27.2 126.19-26L126.19-26Q126.19-24.85 125.99-24L125.99-24 127.49-24Q127.69-23.2 127.69-22L127.69-22Q127.69-20.85 127.49-20L127.49-20 128.49-20Q128.69-19.2 128.69-18L128.69-18Q128.69-16.85 128.49-16L128.49-16 131.49-16Q131.29-16.85 131.29-18L131.29-18Q131.29-19.2 131.49-20L131.49-20 132.49-20Q132.29-20.85 132.29-22L132.29-22Q132.29-23.2 132.49-24L132.49-24 133.99-24Q133.79-24.85 133.79-26L133.79-26Q133.79-27.2 133.99-28L133.99-28 137.99-28Q138.19-27.2 138.19-26L138.19-26Q138.19-24.85 137.99-24L137.99-24 136.49-24Q136.69-23.2 136.69-22L136.69-22Q136.69-20.85 136.49-20L136.49-20 134.49-20Q134.69-19.2 134.69-18L134.69-18Q134.69-16.85 134.49-16L134.49-16 132.99-16Q133.19-15.2 133.19-14L133.19-14Q133.19-12.85 132.99-12L132.99-12 134.49-12Q134.69-11.2 134.69-10L134.69-10Q134.69-8.85 134.49-8L134.49-8 136.49-8Q136.69-7.2 136.69-6L136.69-6Q136.69-4.85 136.49-4L136.49-4Z" opacity="1" transform="matrix(1,0,0,1,0,0)" fill="#eb5e28" class="wordmark-text-0" data-fill-palette-color="primary" id="text-0"></path></svg></g></svg></g></svg></g></svg></g></svg></g></svg></g><path d="M191.302 92.512L191.302 32.017 8.137 32.017 8.137 215.183 191.302 215.183 191.302 154.688 186.777 154.688 186.777 210.658 12.662 210.658 12.662 36.542 186.777 36.542 186.777 92.512Z" fill="#eb5e28" stroke="transparent" data-fill-palette-color="tertiary"></path></svg></g><defs></defs></svg><rect width="395.52" height="247.2" fill="none" stroke="none" visibility="hidden"></rect></g></svg></g></svg>